<?xml version="1.0" standalone="no"?>
<!DOCTYPE svg PUBLIC "-//W3C//DTD SVG 20010904//EN"
 "http://www.w3.org/TR/2001/REC-SVG-20010904/DTD/svg10.dtd">
<svg version="1.0" xmlns="http://www.w3.org/2000/svg"
 width="100.000000pt" height="33.000000pt" viewBox="0 0 100.000000 33.000000"
 preserveAspectRatio="xMidYMid meet">

<g transform="translate(0.000000,33.000000) scale(0.100000,-0.100000)"
fill="#000000" stroke="none">
<path d="M210 223 c-17 -7 -70 -63 -70 -74 0 -12 30 -39 43 -39 7 0 4 7 -5 14
-10 7 -18 20 -18 29 0 15 54 67 70 67 16 0 70 -52 70 -67 0 -9 -8 -22 -17 -29
-19 -14 -6 -19 13 -6 23 16 22 41 -4 70 -29 31 -58 44 -82 35z"/>
<path d="M603 165 c0 -33 2 -45 4 -27 2 18 2 45 0 60 -2 15 -4 0 -4 -33z"/>
<path d="M860 201 c0 -14 -5 -18 -19 -14 -13 3 -23 -2 -30 -16 -16 -30 2 -61
34 -59 23 2 25 6 25 55 0 29 -2 53 -5 53 -3 0 -5 -9 -5 -19z m-5 -51 c0 -28
-29 -40 -38 -15 -9 22 3 46 22 43 10 -2 16 -13 16 -28z"/>
<path d="M422 175 c-2 -44 11 -65 40 -65 23 0 38 30 37 72 -1 26 -3 28 -6 8
-10 -65 -13 -71 -36 -68 -18 2 -23 11 -28 48 l-6 45 -1 -40z"/>
<path d="M521 131 c1 -31 3 -48 6 -39 2 9 14 18 26 20 18 2 22 10 22 38 0 31
-3 35 -27 36 -27 1 -28 0 -27 -55z m47 16 c3 -22 -1 -27 -17 -27 -15 0 -21 6
-21 23 0 46 33 49 38 4z"/>
<path d="M652 181 c-8 -5 -12 -21 -10 -37 2 -23 8 -29 28 -29 20 0 26 6 28 29
3 25 -10 46 -28 46 -3 0 -11 -4 -18 -9z m36 -34 c3 -22 -1 -27 -17 -27 -15 0
-21 6 -21 23 0 46 33 49 38 4z"/>
<path d="M736 181 c-3 -5 3 -7 14 -4 17 5 20 0 20 -27 0 -25 -4 -31 -17 -28
-10 2 -17 11 -15 19 3 11 1 11 -8 2 -17 -16 -3 -33 26 -33 23 0 25 3 22 37 -3
37 -28 57 -42 34z"/>
<path d="M218 155 c-8 -8 3 -55 13 -55 5 0 9 9 9 20 0 11 0 23 1 27 1 10 -16
15 -23 8z"/>
</g>
</svg>
